<svg class="logo-footer" version="1" xmlns="http://www.w3.org/2000/svg" width="146.3" height="40.375" viewBox="0 0 146.3 40.375"><path fill="#FFF" d="M60.498 28.32c0-.054-.009-.105-.016-.158-.006-.049-.009-.098-.02-.146-.002-.009-.001-.017-.003-.025l-5.172-21.34C54.926 4.303 52.694 0 46.688 0a1.5 1.5 0 1 0 0 3c4.856 0 5.575 3.729 5.639 4.143l4.767 19.701h-2.073c-.742-5.927-5.802-10.531-11.927-10.531s-11.186 4.604-11.927 10.531h-1.708c-.742-5.927-5.802-10.531-11.927-10.531S6.346 20.917 5.604 26.844H3.407L8.146 7.291l.028-.148C8.197 6.973 8.802 3 13.812 3a1.5 1.5 0 1 0 0-3C7.806 0 5.574 4.303 5.213 6.651L.042 27.99c-.002.009-.001.017-.003.025-.011.049-.014.098-.02.146-.007.053-.016.104-.016.158L0 28.344c0 .035.008.068.01.103.004.058.007.115.017.171.009.046.023.091.036.136.014.048.026.096.044.142.018.046.042.09.064.133.021.042.042.085.067.124.026.04.057.077.086.114.03.039.06.078.093.113.032.033.067.062.102.092.039.033.076.067.117.097.039.027.082.05.123.073.042.024.083.051.128.07.049.021.101.037.152.054.036.012.068.028.105.037l.023.003c.107.023.217.039.331.039h4.104c.742 5.927 5.802 10.531 11.927 10.531s11.186-4.604 11.927-10.531h1.708c.742 5.927 5.802 10.531 11.927 10.531s11.186-4.604 11.927-10.531H59c.114 0 .224-.016.331-.039l.023-.003c.037-.009.07-.025.105-.037.052-.017.104-.032.152-.054.045-.02.086-.046.128-.07.042-.023.084-.046.123-.073.042-.029.079-.063.117-.097.034-.029.07-.059.102-.092.034-.035.063-.074.093-.113.029-.037.06-.074.086-.114.025-.039.045-.082.067-.124.023-.043.046-.087.064-.133.019-.046.031-.094.044-.142.013-.045.027-.09.036-.136.01-.056.013-.113.017-.171.002-.034.01-.067.01-.103.002-.008 0-.016 0-.024zm-42.967 9.055c-4.475 0-8.181-3.259-8.896-7.531-.082-.489-.135-.988-.135-1.5s.053-1.011.135-1.5c.716-4.271 4.421-7.531 8.896-7.531s8.181 3.26 8.896 7.531c.082.489.135.988.135 1.5s-.053 1.011-.135 1.5c-.715 4.272-4.421 7.531-8.896 7.531zm25.563 0c-4.475 0-8.181-3.259-8.896-7.531-.082-.489-.135-.988-.135-1.5s.053-1.011.135-1.5c.716-4.271 4.421-7.531 8.896-7.531s8.181 3.26 8.896 7.531c.082.489.135.988.135 1.5s-.053 1.011-.135 1.5c-.716 4.272-4.421 7.531-8.896 7.531z"/></svg>